<?xml version="1.0" encoding="utf-8"?>
<!-- Generator: Adobe Illustrator 19.0.0, SVG Export Plug-In . SVG Version: 6.00 Build 0)  -->
<svg version="1.1" id="Layer_1" xmlns="http://www.w3.org/2000/svg" xmlns:xlink="http://www.w3.org/1999/xlink" x="0px" y="0px"
	 width="30.977px" height="29.012px" viewBox="-282 406.9 31 29" style="enable-background:new -282 406.9 31 29;" xml:space="preserve">
<style type="text/css">
	.st0{fill:#FFFFFF;}
</style>
<g id="Orientation_Lock.svg">
	<g>
		<path class="st0" d="M-254.2,423.4l3.2-5.6h-2.6c-1.6-6.2-7.3-10.9-13.9-10.9h-0.1c-8,0-14.4,6.6-14.4,14.6
			c0,3.9,1.5,7.5,4.3,10.2c2.7,2.7,6.3,4.2,10.1,4.2h0.1c4.6,0,9-2.3,11.7-6.1l-0.8-0.6c-2.5,3.5-6.6,5.7-10.9,5.7
			c-3.6,0-7-1.4-9.5-3.9c-2.6-2.5-4-5.9-4-9.5c0-7.5,6-13.6,13.4-13.6h0.1c6.1,0,11.3,4.2,12.9,9.9h-2.8L-254.2,423.4z"/>
		<path class="st0" d="M-272.4,428.5"/>
	</g>
</g>
<polygon class="st0" points="-271.5,427.9 -276.2,423.2 -276.9,423.9 -271.4,429.3 -264.7,422.6 -265.4,421.9 "/>
<path class="st0" d="M-265.2,423L-265.2,423l6-6l-0.7-0.7l-5.8,5.8C-265.5,422.4-265.3,422.7-265.2,423z"/>
</svg>
