<?xml version="1.0" encoding="iso-8859-1"?>
<!-- Generator: Adobe Illustrator 17.0.2, SVG Export Plug-In . SVG Version: 6.00 Build 0)  -->
<!DOCTYPE svg PUBLIC "-//W3C//DTD SVG 1.1//EN" "http://www.w3.org/Graphics/SVG/1.1/DTD/svg11.dtd">
<svg version="1.1" id="Layer_1" xmlns="http://www.w3.org/2000/svg" xmlns:xlink="http://www.w3.org/1999/xlink" x="0px" y="0px"
	 width="30.97px" height="8.025px" viewBox="0 0 30.97 8.025" style="enable-background:new 0 0 30.97 8.025;" xml:space="preserve"
	>
<g id="More_-_Line.svg">
	<g>
		<path style="fill-rule:evenodd;clip-rule:evenodd;fill:#FFFFFF;" d="M15.486,0c-2.274,0-4.124,1.8-4.124,4.013
			c0,2.212,1.85,4.012,4.124,4.012c2.273,0,4.124-1.8,4.124-4.012C19.609,1.8,17.759,0,15.486,0z M15.486,7.038
			c-1.715,0-3.109-1.357-3.109-3.025c0-1.668,1.394-3.025,3.109-3.025s3.109,1.357,3.109,3.025
			C18.595,5.681,17.2,7.038,15.486,7.038z M4.124,0C1.85,0,0,1.8,0,4.013c0,2.212,1.85,4.012,4.124,4.012
			c2.274,0,4.125-1.8,4.125-4.012C8.249,1.8,6.398,0,4.124,0z M4.124,7.038c-1.715,0-3.109-1.357-3.109-3.025
			c0-1.668,1.394-3.025,3.109-3.025c1.714,0,3.11,1.357,3.11,3.025C7.234,5.681,5.838,7.038,4.124,7.038z M26.846,0
			c-2.274,0-4.124,1.8-4.124,4.013c0,2.212,1.85,4.012,4.124,4.012s4.124-1.8,4.124-4.012C30.97,1.8,29.12,0,26.846,0z
			 M26.846,7.038c-1.714,0-3.109-1.357-3.109-3.025c0-1.668,1.395-3.025,3.109-3.025c1.715,0,3.109,1.357,3.109,3.025
			C29.955,5.681,28.561,7.038,26.846,7.038z"/>
	</g>
</g>
<g>
</g>
<g>
</g>
<g>
</g>
<g>
</g>
<g>
</g>
<g>
</g>
<g>
</g>
<g>
</g>
<g>
</g>
<g>
</g>
<g>
</g>
<g>
</g>
<g>
</g>
<g>
</g>
<g>
</g>
</svg>
