<?xml version="1.0" encoding="iso-8859-1"?>
<!-- Generator: Adobe Illustrator 17.0.2, SVG Export Plug-In . SVG Version: 6.00 Build 0)  -->
<!DOCTYPE svg PUBLIC "-//W3C//DTD SVG 1.1//EN" "http://www.w3.org/Graphics/SVG/1.1/DTD/svg11.dtd">
<svg version="1.1" id="Layer_1" xmlns="http://www.w3.org/2000/svg" xmlns:xlink="http://www.w3.org/1999/xlink" x="0px" y="0px"
	 width="24.028px" height="23.963px" viewBox="0 0 24.028 23.963" style="enable-background:new 0 0 24.028 23.963;"
	 xml:space="preserve">
<g id="Airdrop.svg">
	<g>
		<path style="fill-rule:evenodd;clip-rule:evenodd;fill:#FFFFFF;" d="M13.007,12.359c0-0.593-0.467-1.076-1.042-1.076
			s-1.042,0.483-1.042,1.076c0,0.594,0.467,1.077,1.042,1.077S13.007,12.953,13.007,12.359z M11.965,0C5.368,0,0,5.544,0,12.36
			c0,5.165,3.169,9.828,7.885,11.603l0.267-0.757c-4.41-1.66-7.373-6.019-7.373-10.847c0-6.371,5.018-11.555,11.186-11.555
			c6.167,0,11.184,5.183,11.184,11.555c0,4.829-2.963,9.188-7.372,10.847l0.266,0.757c4.716-1.774,7.885-6.437,7.885-11.603
			C23.93,5.544,18.562,0,11.965,0z M22.716,12.36c0-6.124-4.823-11.106-10.751-11.106c-5.928,0-10.751,4.982-10.751,11.106
			c0,4.653,2.857,8.846,7.109,10.435l0.265-0.757c-3.944-1.475-6.595-5.364-6.595-9.679c0-5.68,4.473-10.301,9.972-10.301
			c5.498,0,9.971,4.621,9.971,10.301c0,4.316-2.65,8.205-6.595,9.678l0.265,0.758C19.859,21.207,22.716,17.014,22.716,12.36z
			 M21.502,12.36c0-5.433-4.278-9.852-9.537-9.852c-5.259,0-9.538,4.42-9.538,9.852c0,4.141,2.546,7.866,6.334,9.267l0.263-0.758
			c-3.479-1.288-5.817-4.707-5.817-8.509c0-4.988,3.929-9.047,8.758-9.047c4.829,0,8.757,4.059,8.757,9.047
			c0,3.803-2.338,7.222-5.817,8.509l0.263,0.758C18.957,20.226,21.502,16.502,21.502,12.36z M20.289,12.36
			c0-4.741-3.734-8.599-8.324-8.599c-4.59,0-8.324,3.857-8.324,8.599c0,3.63,2.234,6.886,5.559,8.1l0.26-0.76
			c-3.014-1.1-5.039-4.051-5.039-7.34c0-4.297,3.384-7.793,7.545-7.793c4.16,0,7.544,3.496,7.544,7.793
			c0,3.289-2.025,6.24-5.039,7.34l0.26,0.76C18.055,19.246,20.289,15.99,20.289,12.36z M19.075,12.36c0-4.05-3.189-7.345-7.11-7.345
			c-3.921,0-7.111,3.295-7.111,7.345c0,3.119,1.922,5.905,4.784,6.933l0.256-0.761c-2.548-0.915-4.26-3.395-4.26-6.171
			c0-3.606,2.84-6.539,6.331-6.539c3.491,0,6.33,2.934,6.33,6.539c0,2.777-1.712,5.257-4.26,6.171l0.256,0.761
			C17.153,18.265,19.075,15.479,19.075,12.36z M17.861,12.36c0-3.359-2.645-6.092-5.896-6.092c-3.252,0-5.897,2.733-5.897,6.092
			c0,2.608,1.612,4.925,4.01,5.766l0.25-0.763c-2.082-0.729-3.481-2.74-3.481-5.003c0-2.915,2.296-5.286,5.117-5.286
			c2.821,0,5.116,2.371,5.116,5.286c0,2.263-1.398,4.273-3.48,5.003l0.25,0.763C16.25,17.285,17.861,14.968,17.861,12.36z
			 M16.648,12.36c0-2.668-2.1-4.838-4.683-4.838c-2.583,0-4.683,2.17-4.683,4.838c0,2.099,1.301,3.948,3.238,4.598l0.241-0.766
			c-1.615-0.543-2.699-2.083-2.699-3.832c0-2.224,1.751-4.033,3.904-4.033c2.152,0,3.903,1.809,3.903,4.033
			c0,1.749-1.085,3.289-2.699,3.832l0.241,0.766C15.347,16.308,16.648,14.459,16.648,12.36z M15.434,12.36
			c0-1.977-1.556-3.584-3.469-3.584c-1.913,0-3.47,1.608-3.47,3.584c0,1.583,0.995,2.956,2.475,3.417l0.225-0.771
			c-1.149-0.358-1.921-1.421-1.921-2.646c0-1.532,1.207-2.779,2.69-2.779c1.483,0,2.689,1.247,2.689,2.779
			c0,1.225-0.772,2.288-1.921,2.646l0.225,0.771C14.44,15.316,15.434,13.943,15.434,12.36z M14.22,12.36
			c0-1.285-1.012-2.331-2.255-2.331c-1.244,0-2.256,1.045-2.256,2.331c0,1.07,0.706,1.998,1.716,2.256l0.187-0.782
			c-0.662-0.169-1.124-0.776-1.124-1.474c0-0.841,0.662-1.525,1.476-1.525c0.814,0,1.475,0.684,1.475,1.525
			c0,0.699-0.462,1.305-1.124,1.474l0.187,0.782C13.515,14.358,14.22,13.43,14.22,12.36z"/>
	</g>
</g>
<g>
</g>
<g>
</g>
<g>
</g>
<g>
</g>
<g>
</g>
<g>
</g>
<g>
</g>
<g>
</g>
<g>
</g>
<g>
</g>
<g>
</g>
<g>
</g>
<g>
</g>
<g>
</g>
<g>
</g>
</svg>
