<?xml version="1.0" encoding="iso-8859-1"?>
<!-- Generator: Adobe Illustrator 17.0.2, SVG Export Plug-In . SVG Version: 6.00 Build 0)  -->
<!DOCTYPE svg PUBLIC "-//W3C//DTD SVG 1.1//EN" "http://www.w3.org/Graphics/SVG/1.1/DTD/svg11.dtd">
<svg version="1.1" id="Layer_1" xmlns="http://www.w3.org/2000/svg" xmlns:xlink="http://www.w3.org/1999/xlink" x="0px" y="0px"
	 width="31.017px" height="20.002px" viewBox="0 0 31.017 20.002" style="enable-background:new 0 0 31.017 20.002;"
	 xml:space="preserve">
<g id="Cloud_-_Line.svg">
	<g>
		<path style="fill-rule:evenodd;clip-rule:evenodd;fill:#FFFFFF;" d="M27.075,10.301c0.347-0.879,0.522-1.807,0.522-2.77
			c0-4.152-3.353-7.53-7.473-7.53c-2.202,0-4.299,0.992-5.713,2.677c-0.815-0.647-1.816-0.999-2.87-0.999
			c-2.298,0-4.231,1.692-4.59,3.932C3.102,5.712,0,8.901,0,12.805c0,3.73,2.776,6.787,6.402,7.159l19.759,0.038
			c2.678,0,4.856-2.195,4.856-4.894C31.017,12.72,29.336,10.73,27.075,10.301z M26.161,19.003H7.041l-0.126-0.004
			c-3.322-0.121-5.924-2.841-5.924-6.193c0-3.418,2.759-6.198,6.15-6.198l0.72,0.022L7.89,6.142C8.004,4.2,9.609,2.678,11.542,2.678
			c0.976,0,1.894,0.383,2.585,1.079l0.411,0.413l0.341-0.473c1.217-1.689,3.178-2.697,5.246-2.697c3.574,0,6.482,2.93,6.482,6.531
			c0,1.042-0.236,2.039-0.703,2.96l-0.351,0.694l0.773,0.032c2.076,0.087,3.702,1.796,3.702,3.891
			C30.026,17.255,28.292,19.003,26.161,19.003z"/>
	</g>
</g>
<g>
</g>
<g>
</g>
<g>
</g>
<g>
</g>
<g>
</g>
<g>
</g>
<g>
</g>
<g>
</g>
<g>
</g>
<g>
</g>
<g>
</g>
<g>
</g>
<g>
</g>
<g>
</g>
<g>
</g>
</svg>
