<?xml version="1.0" encoding="iso-8859-1"?>
<!-- Generator: Adobe Illustrator 17.0.2, SVG Export Plug-In . SVG Version: 6.00 Build 0)  -->
<!DOCTYPE svg PUBLIC "-//W3C//DTD SVG 1.1//EN" "http://www.w3.org/Graphics/SVG/1.1/DTD/svg11.dtd">
<svg version="1.1" id="Layer_1" xmlns="http://www.w3.org/2000/svg" xmlns:xlink="http://www.w3.org/1999/xlink" x="0px" y="0px"
	 width="31.017px" height="20.002px" viewBox="0 0 31.017 20.002" style="enable-background:new 0 0 31.017 20.002;"
	 xml:space="preserve">
<g id="Cloud_-_Filled.svg">
	<g>
		<path style="fill-rule:evenodd;clip-rule:evenodd;fill:#FFFFFF;" d="M27.075,10.301c0.347-0.879,0.522-1.807,0.522-2.77
			c0-4.152-3.353-7.53-7.473-7.53c-2.202,0-4.299,0.992-5.713,2.677c-0.815-0.647-1.816-0.999-2.87-0.999
			c-2.298,0-4.231,1.692-4.59,3.932C3.102,5.712,0,8.901,0,12.805c0,3.73,2.776,6.787,6.402,7.159l19.759,0.038
			c2.678,0,4.856-2.195,4.856-4.894C31.017,12.72,29.336,10.73,27.075,10.301z"/>
	</g>
</g>
<g>
</g>
<g>
</g>
<g>
</g>
<g>
</g>
<g>
</g>
<g>
</g>
<g>
</g>
<g>
</g>
<g>
</g>
<g>
</g>
<g>
</g>
<g>
</g>
<g>
</g>
<g>
</g>
<g>
</g>
</svg>
