<?xml version="1.0" encoding="iso-8859-1"?>
<!-- Generator: Adobe Illustrator 17.0.2, SVG Export Plug-In . SVG Version: 6.00 Build 0)  -->
<!DOCTYPE svg PUBLIC "-//W3C//DTD SVG 1.1//EN" "http://www.w3.org/Graphics/SVG/1.1/DTD/svg11.dtd">
<svg version="1.1" id="Layer_1" xmlns="http://www.w3.org/2000/svg" xmlns:xlink="http://www.w3.org/1999/xlink" x="0px" y="0px"
	 width="28.826px" height="18.997px" viewBox="0 0 28.826 18.997" style="enable-background:new 0 0 28.826 18.997;"
	 xml:space="preserve">
<g id="Export_-_Line.svg">
	<g>
		<path style="fill-rule:evenodd;clip-rule:evenodd;fill:#FFFFFF;" d="M28.826,8.758L17.839,0v4.85
			C10.862,5.513,5.502,8.877,1.905,14.853c-2.078,3.453-1.987,3.615-1.835,3.883l0.154,0.261h0.292c0.253,0,0.416-0.18,0.503-0.277
			c0.624-0.69,3.022-2.932,4.723-3.892c3.438-1.94,7.574-2.762,12.098-2.405v5.091L28.826,8.758z M15.82,11.341
			c-3.939,0-7.496,0.88-10.57,2.615c-0.917,0.517-1.997,1.359-2.935,2.168c0.151-0.258,0.302-0.514,0.447-0.754
			c3.495-5.805,8.499-8.924,15.299-9.535l0.779-0.052V2.078l8.38,6.68l-8.38,6.68V11.51l-0.452-0.043
			C17.527,11.383,16.663,11.341,15.82,11.341z"/>
	</g>
</g>
<g>
</g>
<g>
</g>
<g>
</g>
<g>
</g>
<g>
</g>
<g>
</g>
<g>
</g>
<g>
</g>
<g>
</g>
<g>
</g>
<g>
</g>
<g>
</g>
<g>
</g>
<g>
</g>
<g>
</g>
</svg>
