<?xml version="1.0" encoding="iso-8859-1"?>
<!-- Generator: Adobe Illustrator 17.0.2, SVG Export Plug-In . SVG Version: 6.00 Build 0)  -->
<!DOCTYPE svg PUBLIC "-//W3C//DTD SVG 1.1//EN" "http://www.w3.org/Graphics/SVG/1.1/DTD/svg11.dtd">
<svg version="1.1" id="Layer_1" xmlns="http://www.w3.org/2000/svg" xmlns:xlink="http://www.w3.org/1999/xlink" x="0px" y="0px"
	 width="21.977px" height="27.987px" viewBox="0 0 21.977 27.987" style="enable-background:new 0 0 21.977 27.987;"
	 xml:space="preserve">
<g id="Music_-_Filled.svg">
	<g>
		<path style="fill-rule:evenodd;clip-rule:evenodd;fill:#FFFFFF;" d="M6.425,3.759v0.893H6.414l0.017,6.025l0.002-0.001
			c0.021,7.857-0.003,9.026-0.014,9.154c0,0.006-0.074,0.566-0.468,0.642c-0.169,0.031-0.857,0.054-1.718,0.054H4.231
			C1.581,20.526,0,21.739,0,23.771c0,1.698,0.262,2.711,1.743,3.558c0.736,0.325,1.643,0.658,2.787,0.658
			c2.345,0,4.259-1.324,4.441-3.017c0.086-0.361,0.13-0.765,0.13-1.199V8.243L19.31,5.776c0.012,4.869,0.01,9.981-0.016,10.309
			c0,0.006-0.074,0.566-0.468,0.642c-0.168,0.031-0.856,0.054-1.717,0.054h-0.002c-2.649,0-4.231,1.213-4.231,3.245
			c0,1.698,0.262,2.711,1.742,3.558c0.737,0.326,1.644,0.659,2.787,0.659c2.346,0,4.26-1.324,4.441-3.017
			c0.087-0.36,0.13-0.764,0.13-1.2V0L6.425,3.759z"/>
	</g>
</g>
<g>
</g>
<g>
</g>
<g>
</g>
<g>
</g>
<g>
</g>
<g>
</g>
<g>
</g>
<g>
</g>
<g>
</g>
<g>
</g>
<g>
</g>
<g>
</g>
<g>
</g>
<g>
</g>
<g>
</g>
</svg>
